<svg width="32" height="32" viewBox="0 0 32 32" fill="none" xmlns="http://www.w3.org/2000/svg">
<path d="M15.1147 3.00396C15.3587 2.78728 15.6737 2.6676 16.0001 2.6676C16.3264 2.6676 16.6414 2.78728 16.8854 3.00396L28.8854 13.6706C29.1362 13.9089 29.2846 14.2354 29.2992 14.5811C29.3138 14.9267 29.1935 15.2645 28.9636 15.5231C28.7338 15.7817 28.4124 15.9408 28.0674 15.9669C27.7224 15.9929 27.3808 15.8838 27.1147 15.6626L26.6667 15.2666V25.3333C26.6667 26.0405 26.3858 26.7188 25.8857 27.2189C25.3856 27.719 24.7073 28 24.0001 28H8.00007C7.29282 28 6.61454 27.719 6.11445 27.2189C5.61435 26.7188 5.3334 26.0405 5.3334 25.3333V15.2666L4.8854 15.6626C4.61934 15.8838 4.27773 15.9929 3.93273 15.9669C3.58773 15.9408 3.26635 15.7817 3.0365 15.5231C2.80664 15.2645 2.6863 14.9267 2.7009 14.5811C2.71549 14.2354 2.86389 13.9089 3.11473 13.6706L15.1147 3.00396ZM8.00007 12.8933V25.3333H12.0001V18.6666C12.0001 18.313 12.1405 17.9739 12.3906 17.7238C12.6406 17.4738 12.9798 17.3333 13.3334 17.3333H18.6667C19.0204 17.3333 19.3595 17.4738 19.6095 17.7238C19.8596 17.9739 20.0001 18.313 20.0001 18.6666V25.3333H24.0001V12.8946L16.0001 5.78396L8.00007 12.8933ZM17.3334 25.3333V20H14.6667V25.3333H17.3334Z" fill="#424242"/>
</svg>
